<?xml version="1.0" standalone="no"?>
<!DOCTYPE svg PUBLIC "-//W3C//DTD SVG 1.1//EN" "http://www.w3.org/Graphics/SVG/1.1/DTD/svg11.dtd"><svg t="1694313540799"
    class="icon" viewBox="0 0 1027 1024" version="1.1" xmlns="http://www.w3.org/2000/svg" p-id="1745"
    xmlns:xlink="http://www.w3.org/1999/xlink" width="128.375" height="128">
    <path
        d="M992.9 500.1H355c-19.3 0-35 15.7-35 35V660H182V340.8h427.8c32 0 58-26 58-58V58c0-32-25.9-58-58-58H58C26 0 0 26 0 58v224.8c0 32 26 58 58 58h54V689c0 13.3 7.4 24.8 18.2 30.7 6.3 6.3 15.1 10.3 24.8 10.3h165v145.9c0 19.3 15.7 35 35 35h226c19.3 0 35-15.7 35-35s-15.7-35-35-35H390V570.1h567.9V611c0 19.3 15.7 35 35 35s35-15.7 35-35v-75.9c0-19.3-15.7-35-35-35zM70 70h527.8v200.8H70V70z"
        p-id="1746"></path>
    <path
        d="M989 830h-89v-89c0-19.3-15.7-35-35-35s-35 15.7-35 35v89h-89c-19.3 0-35 15.7-35 35s15.7 35 35 35h89v89c0 19.3 15.7 35 35 35s35-15.7 35-35v-89h89c19.3 0 35-15.7 35-35s-15.7-35-35-35z"
        p-id="1747"></path>
</svg>